<svg id="Ebene_1" data-name="Ebene 1" xmlns="http://www.w3.org/2000/svg" viewBox="0 0 580 299"><defs><style>.cls-1,.cls-2,.cls-3,.cls-4,.cls-5,.cls-6,.cls-8{fill:none;stroke-miterlimit:10;}.cls-1{stroke:#000;}.cls-2{stroke:#754c24;}.cls-3{stroke:blue;}.cls-4{stroke:red;}.cls-5{stroke:#f0f;}.cls-6{stroke:lime;stroke-width:1.1px;}.cls-7{fill:lime;}.cls-8{stroke:#f7931e;}.cls-9{fill:blue;}.cls-10{fill:#754c24;}.cls-11{fill:#f7931e;}.cls-12{fill:#f0f;}</style></defs><line class="cls-1" x1="256.29" y1="49.73" x2="38.71" y2="188.27"/><line class="cls-1" x1="433.72" y1="119.93" x2="470.28" y2="272.07"/><path class="cls-2" d="M339.32,144.5l-19.82,5-9.7-15.4a22.63,22.63,0,0,1,10.7-2.6C330.13,131.5,338.09,137.16,339.32,144.5Z"/><polyline class="cls-1" points="256.5 49.5 309.8 134.1 319.5 149.5"/><polyline class="cls-1" points="434.5 120.5 339.32 144.5 319.5 149.5"/><line class="cls-3" x1="256.5" y1="49.5" x2="434.5" y2="120.5"/><path class="cls-4" d="M256.5,49.5v70"/><line class="cls-4" x1="433.5" y1="119.5" x2="256.5" y2="119.5"/><path class="cls-5" d="M256.5,80.65s3.53,2.14,10.26,0,6.9-3.92,6.9-3.92"/><path class="cls-1" d="M436.5,149A117.57,117.57,0,1,1,319,31.5,117.5,117.5,0,0,1,436.5,149Z"/><path class="cls-6" d="M270.46,71.66a25.5,25.5,0,0,1-33.88-6.39"/><path class="cls-7" d="M254.82,65.74a1.5,1.5,0,0,0,0-3,1.5,1.5,0,0,0,0,3Z"/><path class="cls-6" d="M440,144.32A25.5,25.5,0,0,1,410.22,127"/><path class="cls-7" d="M427.77,133.61a1.5,1.5,0,0,0,0-3,1.5,1.5,0,0,0,0,3Z"/><path class="cls-8" d="M278.27,84.05C290.5,79.5,291.5,78.5,291.5,78.5a22.28,22.28,0,0,0,7-6c3-4,3.54-4.84,3.54-4.84"/><path class="cls-9" d="M494.54,51.48h-1V48c0-1.25-.46-1.88-1.39-1.88a1.53,1.53,0,0,0-1.19.54,2.05,2.05,0,0,0-.48,1.4v3.39h-1V42.6h1v3.88h0a2.19,2.19,0,0,1,2-1.14c1.36,0,2,.82,2,2.45Z"/><path class="cls-9" d="M501.13,45.48l-2.76,7c-.49,1.24-1.19,1.86-2.08,1.86a2.12,2.12,0,0,1-.62-.08v-.86a1.73,1.73,0,0,0,.56.11,1.17,1.17,0,0,0,1.09-.87l.48-1.14-2.34-6h1.07l1.62,4.62c0,.06.06.21.12.46h0q0-.14.12-.45l1.7-4.63Z"/><path class="cls-9" d="M503.14,50.62h0v3.62h-1V45.48h1v1.06h0a2.29,2.29,0,0,1,2.08-1.2,2.2,2.2,0,0,1,1.81.81,3.37,3.37,0,0,1,.65,2.16,3.76,3.76,0,0,1-.73,2.41,2.46,2.46,0,0,1-2,.91A2,2,0,0,1,503.14,50.62Zm0-2.42V49a1.8,1.8,0,0,0,.48,1.26,1.73,1.73,0,0,0,2.6-.15,3.09,3.09,0,0,0,.49-1.86,2.41,2.41,0,0,0-.46-1.57,1.53,1.53,0,0,0-1.25-.57,1.71,1.71,0,0,0-1.35.59A2.11,2.11,0,0,0,503.12,48.2Z"/><path class="cls-9" d="M511.72,51.63a2.74,2.74,0,0,1-2.12-.85,3.1,3.1,0,0,1-.8-2.22,3.27,3.27,0,0,1,.83-2.37,3,3,0,0,1,2.23-.85,2.71,2.71,0,0,1,2.1.83,3.27,3.27,0,0,1,.75,2.29,3.21,3.21,0,0,1-.81,2.3A2.84,2.84,0,0,1,511.72,51.63Zm.07-5.48a1.81,1.81,0,0,0-1.46.63,2.59,2.59,0,0,0-.54,1.74,2.46,2.46,0,0,0,.54,1.68,1.87,1.87,0,0,0,1.46.62,1.73,1.73,0,0,0,1.43-.61,2.57,2.57,0,0,0,.5-1.71,2.65,2.65,0,0,0-.5-1.74A1.76,1.76,0,0,0,511.79,46.15Z"/><path class="cls-9" d="M519,51.43a2,2,0,0,1-.9.18c-1,0-1.58-.58-1.58-1.75V46.31h-1v-.83h1V44l1-.31v1.77H519v.83h-1.51v3.38a1.38,1.38,0,0,0,.2.86.83.83,0,0,0,.68.26,1.05,1.05,0,0,0,.63-.2Z"/><path class="cls-9" d="M525,48.73H520.8a2.27,2.27,0,0,0,.54,1.54,1.85,1.85,0,0,0,1.42.55,3,3,0,0,0,1.86-.67v.9a3.48,3.48,0,0,1-2.09.58,2.56,2.56,0,0,1-2-.82,3.37,3.37,0,0,1-.72-2.3,3.25,3.25,0,0,1,.79-2.28,2.55,2.55,0,0,1,2-.89,2.24,2.24,0,0,1,1.82.77,3.15,3.15,0,0,1,.65,2.11Zm-1-.82a1.88,1.88,0,0,0-.4-1.29,1.36,1.36,0,0,0-1.1-.47,1.54,1.54,0,0,0-1.15.49,2.22,2.22,0,0,0-.59,1.27Z"/><path class="cls-9" d="M531.47,51.48h-1V48.06c0-1.27-.46-1.91-1.39-1.91a1.54,1.54,0,0,0-1.2.54,2.05,2.05,0,0,0-.47,1.37v3.42h-1v-6h1v1h0a2.16,2.16,0,0,1,2-1.14A1.85,1.85,0,0,1,531,46a2.82,2.82,0,0,1,.52,1.84Z"/><path class="cls-9" d="M538.13,51.48h-1v-.94h0a2,2,0,0,1-1.85,1.09c-1.43,0-2.15-.86-2.15-2.56V45.48h1v3.44c0,1.26.48,1.9,1.45,1.9a1.49,1.49,0,0,0,1.16-.52,2,2,0,0,0,.45-1.36V45.48h1Z"/><path class="cls-9" d="M539.71,51.27v-1a2.88,2.88,0,0,0,1.73.58c.84,0,1.27-.28,1.27-.85a.72.72,0,0,0-.11-.4,1.07,1.07,0,0,0-.3-.3,1.93,1.93,0,0,0-.43-.23l-.54-.22c-.26-.1-.5-.21-.7-.31a2,2,0,0,1-.5-.37,1.26,1.26,0,0,1-.3-.46,1.57,1.57,0,0,1-.11-.6,1.45,1.45,0,0,1,.2-.75,1.55,1.55,0,0,1,.51-.54,2.26,2.26,0,0,1,.74-.33,3,3,0,0,1,.85-.12,3.41,3.41,0,0,1,1.39.27v1a2.71,2.71,0,0,0-1.52-.44,1.88,1.88,0,0,0-.49.06,1.41,1.41,0,0,0-.37.18.85.85,0,0,0-.24.26.82.82,0,0,0-.08.35.74.74,0,0,0,.33.67,1.67,1.67,0,0,0,.4.22l.53.22c.27.1.51.21.72.31a2.44,2.44,0,0,1,.54.37,1.38,1.38,0,0,1,.34.46,1.54,1.54,0,0,1,.12.63,1.47,1.47,0,0,1-.2.77,1.7,1.7,0,0,1-.52.55,2.49,2.49,0,0,1-.76.32,3.68,3.68,0,0,1-.89.11A3.39,3.39,0,0,1,539.71,51.27Z"/><path class="cls-9" d="M550,48.73h-4.24a2.27,2.27,0,0,0,.54,1.54,1.84,1.84,0,0,0,1.42.55,3,3,0,0,0,1.86-.67v.9a3.5,3.5,0,0,1-2.09.58,2.56,2.56,0,0,1-2-.82,3.37,3.37,0,0,1-.72-2.3,3.25,3.25,0,0,1,.79-2.28,2.55,2.55,0,0,1,2-.89,2.24,2.24,0,0,1,1.82.77,3.15,3.15,0,0,1,.65,2.11Zm-1-.82a1.88,1.88,0,0,0-.4-1.29,1.36,1.36,0,0,0-1.1-.47,1.54,1.54,0,0,0-1.15.49,2.22,2.22,0,0,0-.59,1.27Z"/><path class="cls-10" d="M494.68,67.52h-1v-1h0a2.22,2.22,0,0,1-2.07,1.16,2.25,2.25,0,0,1-1.8-.8,3.33,3.33,0,0,1-.68-2.2,3.59,3.59,0,0,1,.75-2.38,2.48,2.48,0,0,1,2-.9,2,2,0,0,1,1.8,1h0V58.64h1Zm-1-2.71v-.89a1.73,1.73,0,0,0-.48-1.23,1.78,1.78,0,0,0-2.6.14,2.82,2.82,0,0,0-.51,1.79,2.53,2.53,0,0,0,.49,1.63,1.57,1.57,0,0,0,1.3.6,1.63,1.63,0,0,0,1.3-.58A2.16,2.16,0,0,0,493.72,64.81Z"/><path class="cls-10" d="M501.45,64.76h-4.24a2.28,2.28,0,0,0,.54,1.55,1.88,1.88,0,0,0,1.42.54,2.94,2.94,0,0,0,1.86-.66v.9a3.47,3.47,0,0,1-2.09.57,2.56,2.56,0,0,1-2-.81,3.39,3.39,0,0,1-.72-2.3,3.29,3.29,0,0,1,.79-2.29,2.58,2.58,0,0,1,2-.88,2.25,2.25,0,0,1,1.82.76,3.2,3.2,0,0,1,.65,2.12Zm-1-.81a1.91,1.91,0,0,0-.4-1.3,1.36,1.36,0,0,0-1.1-.46,1.54,1.54,0,0,0-1.15.49,2.19,2.19,0,0,0-.59,1.27Z"/><path class="cls-10" d="M503.86,67.52h-1V58.64h1Z"/><path class="cls-10" d="M508.59,67.46a1.76,1.76,0,0,1-.89.19c-1.06,0-1.58-.59-1.58-1.76V62.34h-1v-.82h1V60.06l1-.31v1.77h1.51v.82h-1.51v3.38a1.35,1.35,0,0,0,.21.86.78.78,0,0,0,.67.26,1,1,0,0,0,.63-.2Z"/><path class="cls-10" d="M514.17,67.52h-1v-.94h0a2,2,0,0,1-1.85,1.08,2,2,0,0,1-1.4-.47,1.65,1.65,0,0,1-.51-1.26c0-1.12.66-1.78,2-2l1.8-.25c0-1-.41-1.53-1.24-1.53a3,3,0,0,0-2,.74v-1a3.75,3.75,0,0,1,2-.56c1.41,0,2.12.75,2.12,2.24Zm-1-3-1.45.2a2.35,2.35,0,0,0-1,.33,1,1,0,0,0-.34.84.93.93,0,0,0,.32.72,1.22,1.22,0,0,0,.83.27,1.51,1.51,0,0,0,1.18-.5,1.78,1.78,0,0,0,.47-1.27Z"/><path class="cls-10" d="M522.61,67.52h-1.09l-.89-2.35h-3.56l-.84,2.35h-1.09l3.22-8.4h1Zm-2.3-3.24L519,60.7a4.87,4.87,0,0,1-.13-.56h0a3.36,3.36,0,0,1-.13.56l-1.31,3.58Z"/><path class="cls-10" d="M528.7,67.52h-1V64.1c0-1.27-.46-1.91-1.39-1.91a1.54,1.54,0,0,0-1.2.54,2,2,0,0,0-.47,1.37v3.42h-1v-6h1v1h0a2.15,2.15,0,0,1,2-1.14,1.83,1.83,0,0,1,1.51.64,2.79,2.79,0,0,1,.52,1.83Z"/><path class="cls-10" d="M535.63,67c0,2.2-1,3.31-3.16,3.31a4.18,4.18,0,0,1-2-.43V69a4,4,0,0,0,1.94.57c1.47,0,2.21-.79,2.21-2.36v-.66h0a2.43,2.43,0,0,1-3.87.35,3.21,3.21,0,0,1-.68-2.14,3.78,3.78,0,0,1,.74-2.44,2.46,2.46,0,0,1,2-.9,2,2,0,0,1,1.8,1h0v-.83h1Zm-1-2.23v-.89a1.72,1.72,0,0,0-.48-1.22,1.6,1.6,0,0,0-1.21-.51,1.68,1.68,0,0,0-1.39.65,2.85,2.85,0,0,0-.5,1.81,2.48,2.48,0,0,0,.48,1.6,1.56,1.56,0,0,0,1.28.6,1.69,1.69,0,0,0,1.32-.57A2.16,2.16,0,0,0,534.67,64.81Z"/><path class="cls-10" d="M538.54,67.52h-1V58.64h1Z"/><path class="cls-10" d="M545.31,64.76h-4.24a2.28,2.28,0,0,0,.54,1.55,1.87,1.87,0,0,0,1.42.54,3,3,0,0,0,1.86-.66v.9a3.5,3.5,0,0,1-2.09.57,2.56,2.56,0,0,1-2-.81,3.39,3.39,0,0,1-.73-2.3,3.29,3.29,0,0,1,.8-2.29,2.56,2.56,0,0,1,2-.88,2.27,2.27,0,0,1,1.82.76,3.2,3.2,0,0,1,.65,2.12Zm-1-.81a2,2,0,0,0-.4-1.3,1.36,1.36,0,0,0-1.1-.46,1.52,1.52,0,0,0-1.15.49,2.19,2.19,0,0,0-.59,1.27Z"/><path class="cls-11" d="M490.54,94.25h0v.87h-1V86.24h1v3.93h0A2.3,2.3,0,0,1,492.62,89a2.23,2.23,0,0,1,1.81.8,3.37,3.37,0,0,1,.65,2.16,3.69,3.69,0,0,1-.73,2.41,2.44,2.44,0,0,1-2,.91A2,2,0,0,1,490.54,94.25Zm0-2.42v.84a1.77,1.77,0,0,0,.48,1.26,1.73,1.73,0,0,0,2.6-.15,3,3,0,0,0,.5-1.86,2.43,2.43,0,0,0-.47-1.57,1.54,1.54,0,0,0-1.25-.56,1.7,1.7,0,0,0-1.35.58A2.15,2.15,0,0,0,490.52,91.83Z"/><path class="cls-12" d="M494.8,82.52h-1v-.94h0a2.2,2.2,0,0,1-3.25.61,1.68,1.68,0,0,1-.5-1.26c0-1.12.66-1.78,2-2l1.8-.25c0-1-.42-1.53-1.24-1.53a3,3,0,0,0-2,.74v-1a3.76,3.76,0,0,1,2-.56c1.41,0,2.12.75,2.12,2.24Zm-1-3-1.45.2a2.3,2.3,0,0,0-1,.33,1,1,0,0,0-.34.84,1,1,0,0,0,.31.72,1.25,1.25,0,0,0,.84.27,1.51,1.51,0,0,0,1.18-.5,1.78,1.78,0,0,0,.47-1.27Z"/></svg>